<?xml version="1.0" encoding="UTF-8"?>
<!--Generator: Apple Native CoreSVG 326-->
<!DOCTYPE svg
PUBLIC "-//W3C//DTD SVG 1.1//EN"
       "http://www.w3.org/Graphics/SVG/1.1/DTD/svg11.dtd">
<svg version="1.1" xmlns="http://www.w3.org/2000/svg" xmlns:xlink="http://www.w3.org/1999/xlink" viewBox="0 0 52.9492 48.1445">
 <g>
  <rect height="48.1445" opacity="0" width="52.9492" x="0" y="0"/>
  <path d="M31.8555 3.24219L51.6016 37.7734C52.2461 38.8867 52.5781 40.0977 52.5781 41.2695C52.5781 44.8828 50.1172 47.7344 46.0352 47.7344L6.52344 47.7344C2.46094 47.7344 0 44.8828 0 41.2695C0 40.0977 0.3125 38.9062 0.976562 37.7734L20.7227 3.24219C21.9531 1.07422 24.1016 0 26.2891 0C28.457 0 30.625 1.07422 31.8555 3.24219ZM23.7305 36.6992C23.7305 38.0469 24.9023 39.1602 26.2891 39.1602C27.6562 39.1602 28.8477 38.0664 28.8477 36.6992C28.8477 35.3125 27.6758 34.2188 26.2891 34.2188C24.8828 34.2188 23.7305 35.332 23.7305 36.6992ZM24.1992 15.4297L24.5117 29.1797C24.5312 30.3516 25.1562 31.0156 26.2891 31.0156C27.3633 31.0156 28.0078 30.3711 28.0273 29.1797L28.3398 15.4492C28.3594 14.2773 27.4805 13.418 26.2695 13.418C25.0391 13.418 24.1797 14.2578 24.1992 15.4297Z" fill="white" fill-opacity="0.85"/>
 </g>
</svg>
