<?xml version="1.0" encoding="UTF-8"?>
<!--Generator: Apple Native CoreSVG 326-->
<!DOCTYPE svg
PUBLIC "-//W3C//DTD SVG 1.1//EN"
       "http://www.w3.org/Graphics/SVG/1.1/DTD/svg11.dtd">
<svg version="1.1" xmlns="http://www.w3.org/2000/svg" xmlns:xlink="http://www.w3.org/1999/xlink" viewBox="0 0 48.0859 45.4102">
 <g>
  <rect height="45.4102" opacity="0" width="48.0859" x="0" y="0"/>
  <path d="M8.20312 7.94922L19.4727 7.94922C20.1562 7.94922 20.7031 7.38281 20.7031 6.67969C20.7031 5.97656 20.1562 5.39062 19.4727 5.39062L8.20312 5.39062C7.5 5.39062 6.97266 5.97656 6.97266 6.67969C6.97266 7.38281 7.5 7.94922 8.20312 7.94922ZM1.21094 17.7344L14.5898 17.7344C15.293 17.7344 15.8203 17.168 15.8203 16.4648C15.8203 15.7617 15.293 15.1758 14.5898 15.1758L1.21094 15.1758C0.527344 15.1758 0 15.7812 0 16.4648C0 17.1484 0.527344 17.7344 1.21094 17.7344ZM7.05078 27.5195L14.4922 27.5195C15.1758 27.5195 15.7031 26.9531 15.7031 26.25C15.7031 25.5469 15.1758 24.9609 14.4922 24.9609L7.05078 24.9609C6.34766 24.9609 5.82031 25.5469 5.82031 26.25C5.82031 26.9531 6.34766 27.5195 7.05078 27.5195ZM1.91406 37.1875L12.1094 37.1875C12.793 37.1875 13.3203 36.6211 13.3203 35.918C13.3203 35.2148 12.793 34.6289 12.1094 34.6289L1.91406 34.6289C1.23047 34.6289 0.703125 35.2148 0.703125 35.918C0.703125 36.6211 1.23047 37.1875 1.91406 37.1875Z" fill="black" fill-opacity="0.85"/>
  <path d="M23.5352 43.8867L29.6875 36.5625C30.293 35.8594 30.3711 35.6641 30.6055 34.9219L31.1133 33.418L27.8125 29.2773L26.7773 34.0234L20.6836 41.2305C18.7305 43.5352 21.9141 45.8008 23.5352 43.8867ZM38.5352 43.2812C39.7852 45.8594 43.5742 44.2773 42.207 41.5039L38.0273 33.0273C37.7148 32.3828 37.2461 31.6992 36.875 31.1523L34.1992 27.3633L34.3945 26.8164C35.1367 24.707 35.3711 23.418 35.5273 21.3086L35.9375 15.3906C36.1328 12.5781 34.4727 10.4297 31.6016 10.4297C29.4336 10.4297 27.9688 11.5234 25.9766 13.4766L22.8516 16.5625C21.8164 17.5781 21.4844 18.3984 21.3867 19.7266L21.0156 24.5703C20.918 25.7812 21.6016 26.6602 22.7344 26.6992C23.8672 26.7773 24.5508 26.1133 24.668 24.8047L25.1367 19.4922L26.6406 18.125C27.1875 17.6367 27.9102 17.9688 27.8516 18.5156L27.5195 23.0273C27.3438 25.293 27.8711 26.3672 29.4531 28.3203L33.5938 33.5352C34.0039 34.0625 34.0625 34.2773 34.2383 34.5898ZM45.6641 18.457L40.918 18.457L37.832 15.0195L37.5195 20L38.7695 21.25C39.4531 21.9336 40.0391 22.1289 41.25 22.1289L45.6641 22.1289C46.8945 22.1289 47.7148 21.4258 47.7148 20.2734C47.7148 19.1797 46.875 18.457 45.6641 18.457ZM33.8867 8.59375C36.2695 8.59375 38.1836 6.67969 38.1836 4.29688C38.1836 1.91406 36.2695 0 33.8867 0C31.5039 0 29.5898 1.91406 29.5898 4.29688C29.5898 6.67969 31.5039 8.59375 33.8867 8.59375Z" fill="black" fill-opacity="0.85"/>
 </g>
</svg>
