<?xml version="1.0" encoding="UTF-8"?>
<!--Generator: Apple Native CoreSVG 326-->
<!DOCTYPE svg
PUBLIC "-//W3C//DTD SVG 1.1//EN"
       "http://www.w3.org/Graphics/SVG/1.1/DTD/svg11.dtd">
<svg version="1.1" xmlns="http://www.w3.org/2000/svg" xmlns:xlink="http://www.w3.org/1999/xlink" viewBox="0 0 37.9102 49.668">
 <g>
  <rect height="49.668" opacity="0" width="37.9102" x="0" y="0"/>
  <path d="M9.76562 0C4.375 0 0 4.375 0 9.76562C0 12.0898 0.820312 14.2383 2.16797 15.918C2.5 16.3281 2.89062 16.4844 3.26172 16.4844C4.21875 16.4844 5.03906 15.3516 4.21875 14.375C3.16406 13.125 2.55859 11.5234 2.55859 9.76562C2.55859 5.78125 5.78125 2.55859 9.76562 2.55859C13.75 2.55859 16.9531 5.78125 16.9531 9.76562C16.9531 9.88281 16.9531 10 16.9531 10.1758C16.9727 11.0547 17.5781 11.4453 18.2031 11.4453C18.8086 11.4453 19.4336 11.0156 19.4922 10.332C19.5117 10.1953 19.5117 10.0195 19.5117 9.76562C19.5117 4.375 15.1562 0 9.76562 0Z" fill="white" fill-opacity="0.85"/>
  <path d="M28.75 42.0898C36.7188 39.1992 39.375 32.5781 36.2695 24.043L35 20.5273C33.8086 17.3047 31.5625 15.8984 29.8047 16.5234C29.3945 16.6797 29.2578 16.9727 29.3945 17.3438L29.9609 18.9062C30.2344 19.6484 30 20.1367 29.5508 20.3125C29.082 20.4688 28.5742 20.2539 28.3008 19.5117L27.9297 18.4961C27.2266 16.582 25.5664 15.7812 23.9258 16.3867C23.1836 16.6602 22.9492 17.0898 23.1836 17.7148L23.9648 19.8438C24.2188 20.5859 23.9844 21.0742 23.5547 21.25C23.0664 21.4258 22.5586 21.1914 22.2852 20.4492L21.582 18.4961C20.8008 16.3477 19.1992 15.8008 17.5977 16.3867C16.8945 16.6406 16.6406 17.1094 16.8555 17.7148L18.3789 21.875C18.6523 22.6172 18.3984 23.1055 17.9688 23.2812C17.4805 23.457 16.9727 23.2227 16.6992 22.4805L11.6406 8.55469C11.1523 7.1875 9.94141 6.64062 8.78906 7.05078C7.55859 7.5 7.03125 8.69141 7.51953 10.0586L14.9414 30.4492C15.1172 30.957 14.9023 31.3281 14.5898 31.4453C14.2773 31.5625 13.9453 31.4648 13.5547 31.0352L8.53516 25.6445C7.79297 24.8633 7.01172 24.668 6.19141 24.9805C4.94141 25.4297 4.45312 26.582 4.82422 27.6367C4.98047 28.0469 5.19531 28.3594 5.39062 28.6133L11.6016 36.4062C16.8359 42.9688 22.8906 44.2188 28.75 42.0898Z" fill="white" fill-opacity="0.85"/>
 </g>
</svg>
