<?xml version="1.0" encoding="UTF-8"?>
<!--Generator: Apple Native CoreSVG 326-->
<!DOCTYPE svg
PUBLIC "-//W3C//DTD SVG 1.1//EN"
       "http://www.w3.org/Graphics/SVG/1.1/DTD/svg11.dtd">
<svg version="1.1" xmlns="http://www.w3.org/2000/svg" xmlns:xlink="http://www.w3.org/1999/xlink" viewBox="0 0 36.4648 46.3086">
 <g>
  <rect height="46.3086" opacity="0" width="36.4648" x="0" y="0"/>
  <path d="M20.1172 24.043L35.5078 8.65234C36.6797 7.5 36.0156 6.07422 34.3945 5.56641C30.6836 4.375 26.6797 4.04297 21.4453 4.35547L20.4102 3.26172C18.75 1.48438 16.3867 1.48438 14.6289 3.20312C12.9297 4.96094 12.8906 7.38281 14.6875 8.98438L15.7812 9.98047C15.4492 15.1562 15.7617 19.1797 16.9531 22.9492C17.4805 24.5898 18.8867 25.2734 20.1172 24.043ZM15.5273 6.17188L17.5977 4.08203L14.1016 0.625C13.5156 0.0390625 12.6172 0.0390625 12.0312 0.625C11.4648 1.19141 11.4453 2.08984 12.0312 2.67578ZM28.9453 22.8125C31.8359 22.8125 34.2188 20.4102 34.2188 17.5586C34.2188 16.3086 33.7695 15.0977 32.8906 14.1406L25.5273 21.5039C26.4844 22.3633 27.6953 22.8125 28.9453 22.8125ZM3.69141 26.6211L18.5156 12.9883L16.3672 10.7227L1.5625 24.3359ZM3.04688 28.125C4.74609 28.125 6.09375 26.7969 6.09375 25.0781C6.09375 23.3789 4.74609 22.0312 3.04688 22.0312C1.32812 22.0312 0 23.3789 0 25.0781C0 26.7969 1.32812 28.125 3.04688 28.125ZM10.9766 35.0586L13.2031 32.8516L3.49609 23.1836L1.28906 25.3906ZM11.5625 37.0898C13.2617 37.0898 14.6094 35.7617 14.6094 34.043C14.6094 32.3438 13.2422 30.9961 11.5625 30.9961C9.84375 30.9961 8.51562 32.3438 8.51562 34.043C8.51562 35.7617 9.84375 37.0898 11.5625 37.0898ZM9.98047 43.5547L13.125 43.5547L13.125 34.1211L9.98047 34.1211ZM2.24609 46.3086L23.0273 46.3086C23.75 46.3086 24.2383 45.7812 24.2383 45.0195C24.2383 43.5547 22.9688 42.5195 20.9961 42.5195L4.27734 42.5195C2.30469 42.5195 1.03516 43.5547 1.03516 45.0195C1.03516 45.7812 1.52344 46.3086 2.24609 46.3086Z" fill="black" fill-opacity="0.85"/>
 </g>
</svg>
