<?xml version="1.0" encoding="UTF-8"?>
<!--Generator: Apple Native CoreSVG 326-->
<!DOCTYPE svg
PUBLIC "-//W3C//DTD SVG 1.1//EN"
       "http://www.w3.org/Graphics/SVG/1.1/DTD/svg11.dtd">
<svg version="1.1" xmlns="http://www.w3.org/2000/svg" xmlns:xlink="http://www.w3.org/1999/xlink" viewBox="0 0 51.25 50.918">
 <g>
  <rect height="50.918" opacity="0" width="51.25" x="0" y="0"/>
  <path d="M50.8789 25.4688C50.8789 39.4922 39.4531 50.918 25.4297 50.918C11.4258 50.918 0 39.4922 0 25.4688C0 11.4648 11.4258 0.0390625 25.4297 0.0390625C39.4531 0.0390625 50.8789 11.4648 50.8789 25.4688ZM12.1484 37.168C12.1484 38.0273 12.5781 38.6328 13.5156 38.6328L37.3438 38.6328C38.3008 38.6328 38.7109 38.0273 38.7109 37.168C38.7109 34.3359 34.4727 26.8945 25.4297 26.8945C16.4062 26.8945 12.1484 34.3359 12.1484 37.168ZM18.8281 17.5586C18.8281 21.6797 21.7773 24.7656 25.4297 24.7852C29.082 24.8047 32.0312 21.6797 32.0312 17.5586C32.0312 13.7109 29.082 10.5078 25.4297 10.5078C21.7773 10.5078 18.8281 13.7109 18.8281 17.5586Z" fill="white" fill-opacity="0.85"/>
 </g>
</svg>
