<?xml version="1.0" encoding="UTF-8"?>
<!--Generator: Apple Native CoreSVG 326-->
<!DOCTYPE svg
PUBLIC "-//W3C//DTD SVG 1.1//EN"
       "http://www.w3.org/Graphics/SVG/1.1/DTD/svg11.dtd">
<svg version="1.1" xmlns="http://www.w3.org/2000/svg" xmlns:xlink="http://www.w3.org/1999/xlink" viewBox="0 0 59.5508 53.5742">
 <g>
  <rect height="53.5742" opacity="0" width="59.5508" x="0" y="0"/>
  <path d="M12.7344 7.30469L12.7344 8.82813L46.4648 8.82813L46.4648 7.30469C46.4648 4.60938 47.9883 3.125 50.7812 3.125L54.8438 3.125C57.6562 3.125 59.1797 4.60938 59.1797 7.30469L59.1797 24.707C59.1797 27.4023 57.6562 28.8867 54.8438 28.8867L50.7812 28.8867C47.9883 28.8867 46.4648 27.4023 46.4648 24.707L46.4648 22.9297L37.4013 22.9297L34.6289 17.793C33.4961 15.6641 31.7773 14.5508 29.6289 14.5508C27.4609 14.5508 25.7617 15.6836 24.6094 17.7539L21.8496 22.9297L12.7344 22.9297L12.7344 24.707C12.7344 27.4023 11.2109 28.8867 8.39844 28.8867L4.33594 28.8867C1.52344 28.8867 0 27.4023 0 24.707L0 7.30469C0 4.60938 1.52344 3.125 4.33594 3.125L8.39844 3.125C11.2109 3.125 12.7344 4.60938 12.7344 7.30469Z" fill="white" fill-opacity="0.85"/>
  <path d="M29.6289 50.4492C35.8789 50.4492 40.8594 45.5859 40.8594 39.4922C40.8594 36.1133 39.1602 32.793 37.7344 30.0781L31.8945 19.2578C31.3086 18.1641 30.6445 17.6758 29.6289 17.6758C28.6133 17.6758 27.9492 18.1641 27.3633 19.2383L21.5625 30.0781C20.1172 32.793 18.418 36.1133 18.418 39.4922C18.418 45.5859 23.3984 50.4492 29.6289 50.4492Z" fill="white" fill-opacity="0.85"/>
 </g>
</svg>
