<?xml version="1.0" encoding="UTF-8"?>
<!--Generator: Apple Native CoreSVG 326-->
<!DOCTYPE svg
PUBLIC "-//W3C//DTD SVG 1.1//EN"
       "http://www.w3.org/Graphics/SVG/1.1/DTD/svg11.dtd">
<svg version="1.1" xmlns="http://www.w3.org/2000/svg" xmlns:xlink="http://www.w3.org/1999/xlink" viewBox="0 0 52.7344 51.3086">
 <g>
  <rect height="51.3086" opacity="0" width="52.7344" x="0" y="0"/>
  <path d="M8.06641 19.2383L49.043 19.2383C50.0586 19.2383 50.7617 18.5547 50.7617 17.5781L50.7617 8.00781C50.7617 7.03125 50.0586 6.34766 49.043 6.34766L8.06641 6.34766C7.07031 6.34766 6.34766 7.03125 6.34766 8.00781L6.34766 17.5781C6.34766 18.5547 7.07031 19.2383 8.06641 19.2383ZM8.06641 35.2734L49.043 35.2734C50.0586 35.2734 50.7617 34.5703 50.7617 33.5938L50.7617 24.0234C50.7617 23.0664 50.0586 22.3633 49.043 22.3633L8.06641 22.3633C7.07031 22.3633 6.34766 23.0664 6.34766 24.0234L6.34766 33.5938C6.34766 34.5703 7.07031 35.2734 8.06641 35.2734ZM8.06641 51.2891L49.043 51.2891C50.0586 51.2891 50.7617 50.5859 50.7617 49.6094L50.7617 40.0391C50.7617 39.082 50.0586 38.3789 49.043 38.3789L8.06641 38.3789C7.07031 38.3789 6.34766 39.082 6.34766 40.0391L6.34766 49.6094C6.34766 50.5859 7.07031 51.2891 8.06641 51.2891Z" fill="white" fill-opacity="0.85"/>
  <path d="M0 1.73828C0 2.67578 0.78125 3.45703 1.71875 3.45703L50.7617 3.45703C51.7188 3.45703 52.5 2.67578 52.5 1.73828C52.5 0.78125 51.7188 0 50.7617 0L1.71875 0C0.78125 0 0 0.78125 0 1.73828ZM1.71875 9.375C2.59766 9.375 3.28125 8.65234 3.28125 7.8125C3.28125 6.95312 2.59766 6.25 1.71875 6.25C0.859375 6.25 0.175781 6.95312 0.175781 7.8125C0.175781 8.65234 0.859375 9.375 1.71875 9.375ZM1.71875 15.2344C2.59766 15.2344 3.28125 14.5312 3.28125 13.6719C3.28125 12.8125 2.59766 12.1289 1.71875 12.1289C0.859375 12.1289 0.175781 12.8125 0.175781 13.6719C0.175781 14.5312 0.859375 15.2344 1.71875 15.2344ZM1.71875 21.1133C2.59766 21.1133 3.28125 20.4102 3.28125 19.5508C3.28125 18.6914 2.59766 18.0078 1.71875 18.0078C0.859375 18.0078 0.175781 18.6914 0.175781 19.5508C0.175781 20.4102 0.859375 21.1133 1.71875 21.1133ZM1.71875 33.6523C2.65625 33.6523 3.45703 32.8711 3.45703 31.9336L3.45703 25.5859C3.45703 24.6484 2.67578 23.8672 1.71875 23.8672C0.78125 23.8672 0 24.6484 0 25.5859L0 31.9336C0 32.8711 0.800781 33.6523 1.71875 33.6523Z" fill="white" fill-opacity="0.85"/>
 </g>
</svg>
