<?xml version="1.0" encoding="UTF-8"?>
<!--Generator: Apple Native CoreSVG 326-->
<!DOCTYPE svg
PUBLIC "-//W3C//DTD SVG 1.1//EN"
       "http://www.w3.org/Graphics/SVG/1.1/DTD/svg11.dtd">
<svg version="1.1" xmlns="http://www.w3.org/2000/svg" xmlns:xlink="http://www.w3.org/1999/xlink" viewBox="0 0 37.9883 37.6758">
 <g>
  <rect height="37.6758" opacity="0" width="37.9883" x="0" y="0"/>
  <path d="M1.5625 37.6367C2.44141 37.6367 3.14453 36.9141 3.14453 36.0547L3.14453 29.4727L9.98047 29.4727C11.0938 29.4727 11.9141 28.6523 11.9141 27.5391L11.9141 20.7031L18.75 20.7031C19.8633 20.7031 20.7031 19.8828 20.7031 18.7695L20.7031 11.9336L27.5195 11.9336C28.6523 11.9336 29.4727 11.1133 29.4727 10L29.4727 3.14453L36.0352 3.14453C36.9141 3.14453 37.6172 2.44141 37.6172 1.58203C37.6172 0.722656 36.9141 0 36.0352 0L28.2617 0C27.1484 0 26.3281 0.839844 26.3281 1.95312L26.3281 8.78906L19.4922 8.78906C18.3789 8.78906 17.5586 9.60938 17.5586 10.7227L17.5586 17.5586L10.7031 17.5586C9.58984 17.5586 8.76953 18.3789 8.76953 19.5117L8.76953 26.3281L1.93359 26.3281C0.820312 26.3281 0 27.168 0 28.2812L0 36.0547C0 36.9141 0.703125 37.6367 1.5625 37.6367Z" fill="white" fill-opacity="0.85"/>
 </g>
</svg>
