<?xml version="1.0" encoding="UTF-8"?>
<!--Generator: Apple Native CoreSVG 326-->
<!DOCTYPE svg
PUBLIC "-//W3C//DTD SVG 1.1//EN"
       "http://www.w3.org/Graphics/SVG/1.1/DTD/svg11.dtd">
<svg version="1.1" xmlns="http://www.w3.org/2000/svg" xmlns:xlink="http://www.w3.org/1999/xlink" viewBox="0 0 50.8008 31.7383">
 <g>
  <rect height="31.7383" opacity="0" width="50.8008" x="0" y="0"/>
  <path d="M9.12109 31.7188L30.0977 31.7188C34.0234 31.7188 36.3672 29.4531 36.3672 25.5273L36.3672 6.17188C36.3672 2.26562 34.2188 0 30.293 0L9.12109 0C5.37109 0 2.85156 2.26562 2.85156 6.17188L2.85156 25.5273C2.85156 29.4531 5.19531 31.7188 9.12109 31.7188ZM39.0234 21.6211L46.1328 27.7734C46.7969 28.3594 47.5781 28.7305 48.2812 28.7305C49.8047 28.7305 50.8008 27.6172 50.8008 26.0156L50.8008 5.70312C50.8008 4.10156 49.8047 2.98828 48.2812 2.98828C47.5781 2.98828 46.7969 3.35938 46.1328 3.94531L39.0234 10.0781Z" fill="black" fill-opacity="0.85"/>
 </g>
</svg>
