<?xml version="1.0" encoding="UTF-8"?>
<!--Generator: Apple Native CoreSVG 326-->
<!DOCTYPE svg
PUBLIC "-//W3C//DTD SVG 1.1//EN"
       "http://www.w3.org/Graphics/SVG/1.1/DTD/svg11.dtd">
<svg version="1.1" xmlns="http://www.w3.org/2000/svg" xmlns:xlink="http://www.w3.org/1999/xlink" viewBox="0 0 65 40.8398">
 <g>
  <rect height="40.8398" opacity="0" width="65" x="0" y="0"/>
  <path d="M11.5039 40.8203L38.8281 40.8203C43.9648 40.8203 46.9531 37.9102 46.9531 32.793L46.9531 8.00781C46.9531 2.91016 44.1602 0 39.0234 0L11.5039 0C6.54297 0 3.37891 2.91016 3.37891 8.00781L3.37891 32.793C3.37891 37.9102 6.36719 40.8203 11.5039 40.8203ZM50.0586 27.832L59.1992 35.6055C60.0781 36.3477 61.0156 36.8164 61.9531 36.8164C63.7891 36.8164 65 35.4883 65 33.4766L65 7.32422C65 5.33203 63.7891 4.00391 61.9531 4.00391C61.0156 4.00391 60.0781 4.47266 59.1992 5.21484L50.0586 12.9492Z" fill="black" fill-opacity="0.85"/>
 </g>
</svg>
